<svg xmlns="http://www.w3.org/2000/svg" xmlns:xlink="http://www.w3.org/1999/xlink" height="128" width="128" viewBox="0 0 29 29">
    <path fill="#FFFFFF" d="M0,0 h29v29H0z" shape-rendering="crispEdges"/>
    <path fill="#000000" d="M0 0h7v1H0zM8 0h2v1H8zM11 0h5v1H11zM19 0h2v1H19zM22,0 h7v1H22zM0 1h1v1H0zM6 1h1v1H6zM9 1h3v1H9zM14 1h1v1H14zM16 1h2v1H16zM22 1h1v1H22zM28,1 h1v1H28zM0 2h1v1H0zM2 2h3v1H2zM6 2h1v1H6zM8 2h2v1H8zM11 2h2v1H11zM15 2h1v1H15zM17 2h3v1H17zM22 2h1v1H22zM24 2h3v1H24zM28,2 h1v1H28zM0 3h1v1H0zM2 3h3v1H2zM6 3h1v1H6zM8 3h1v1H8zM10 3h1v1H10zM15 3h1v1H15zM18 3h3v1H18zM22 3h1v1H22zM24 3h3v1H24zM28,3 h1v1H28zM0 4h1v1H0zM2 4h3v1H2zM6 4h1v1H6zM9 4h1v1H9zM12 4h2v1H12zM15 4h2v1H15zM18 4h1v1H18zM22 4h1v1H22zM24 4h3v1H24zM28,4 h1v1H28zM0 5h1v1H0zM6 5h1v1H6zM8 5h2v1H8zM16 5h1v1H16zM18 5h2v1H18zM22 5h1v1H22zM28,5 h1v1H28zM0 6h7v1H0zM8 6h1v1H8zM10 6h1v1H10zM12 6h1v1H12zM14 6h1v1H14zM16 6h1v1H16zM18 6h1v1H18zM20 6h1v1H20zM22,6 h7v1H22zM8 7h2v1H8zM11 7h3v1H11zM16 7h2v1H16zM20 7h1v1H20zM1 8h1v1H1zM3 8h1v1H3zM5 8h4v1H5zM11 8h1v1H11zM13 8h1v1H13zM16 8h3v1H16zM20 8h4v1H20zM25 8h2v1H25zM28,8 h1v1H28zM1 9h5v1H1zM7 9h1v1H7zM9 9h1v1H9zM11 9h2v1H11zM14 9h1v1H14zM17 9h1v1H17zM21 9h3v1H21zM26 9h1v1H26zM28,9 h1v1H28zM1 10h1v1H1zM3 10h1v1H3zM5 10h2v1H5zM8 10h1v1H8zM11 10h4v1H11zM18 10h2v1H18zM22 10h2v1H22zM25 10h1v1H25zM27 10h1v1H27zM0 11h4v1H0zM5 11h1v1H5zM8 11h1v1H8zM13 11h1v1H13zM16 11h1v1H16zM18 11h1v1H18zM20 11h3v1H20zM24 11h1v1H24zM26 11h2v1H26zM0 12h3v1H0zM4 12h3v1H4zM10 12h1v1H10zM13 12h5v1H13zM22 12h2v1H22zM2 13h2v1H2zM8 13h4v1H8zM14 13h1v1H14zM16 13h1v1H16zM18 13h4v1H18zM23 13h1v1H23zM25 13h1v1H25zM27 13h1v1H27zM1 14h1v1H1zM4 14h1v1H4zM6 14h2v1H6zM12 14h4v1H12zM21 14h1v1H21zM28,14 h1v1H28zM0 15h2v1H0zM3 15h2v1H3zM7 15h2v1H7zM10 15h2v1H10zM15 15h2v1H15zM19 15h2v1H19zM22 15h2v1H22zM27 15h1v1H27zM0 16h1v1H0zM5 16h2v1H5zM9 16h1v1H9zM11 16h1v1H11zM14 16h1v1H14zM16 16h1v1H16zM19 16h1v1H19zM21 16h1v1H21zM4 17h2v1H4zM7 17h2v1H7zM13 17h1v1H13zM15 17h1v1H15zM17 17h1v1H17zM20 17h1v1H20zM23 17h1v1H23zM27,17 h2v1H27zM0 18h1v1H0zM2 18h2v1H2zM5 18h2v1H5zM10 18h2v1H10zM13 18h1v1H13zM18 18h1v1H18zM20 18h2v1H20zM26,18 h3v1H26zM3 19h1v1H3zM5 19h1v1H5zM9 19h1v1H9zM11 19h3v1H11zM15 19h4v1H15zM24 19h2v1H24zM27,19 h2v1H27zM0 20h1v1H0zM2 20h6v1H2zM9 20h3v1H9zM13 20h1v1H13zM18 20h1v1H18zM20 20h5v1H20zM26 20h2v1H26zM8 21h2v1H8zM11 21h1v1H11zM16 21h2v1H16zM19 21h2v1H19zM24 21h1v1H24zM28,21 h1v1H28zM0 22h7v1H0zM8 22h1v1H8zM10 22h2v1H10zM16 22h1v1H16zM18 22h1v1H18zM20 22h1v1H20zM22 22h1v1H22zM24 22h4v1H24zM0 23h1v1H0zM6 23h1v1H6zM8 23h2v1H8zM14 23h2v1H14zM18 23h1v1H18zM20 23h1v1H20zM24 23h1v1H24zM26 23h2v1H26zM0 24h1v1H0zM2 24h3v1H2zM6 24h1v1H6zM9 24h2v1H9zM16 24h1v1H16zM18 24h1v1H18zM20 24h6v1H20zM28,24 h1v1H28zM0 25h1v1H0zM2 25h3v1H2zM6 25h1v1H6zM8 25h1v1H8zM11 25h3v1H11zM15 25h1v1H15zM18 25h5v1H18zM24 25h1v1H24zM26 25h1v1H26zM28,25 h1v1H28zM0 26h1v1H0zM2 26h3v1H2zM6 26h1v1H6zM12 26h5v1H12zM19 26h2v1H19zM24 26h2v1H24zM28,26 h1v1H28zM0 27h1v1H0zM6 27h1v1H6zM8 27h4v1H8zM13 27h2v1H13zM16 27h2v1H16zM20 27h1v1H20zM23 27h1v1H23zM27 27h1v1H27zM0 28h7v1H0zM10 28h2v1H10zM13 28h3v1H13zM17 28h1v1H17zM19 28h4v1H19zM24 28h2v1H24zM27 28h1v1H27z" shape-rendering="crispEdges"/>
</svg>