<svg width="120" height="66" viewBox="0 0 120 66" fill="none" xmlns="http://www.w3.org/2000/svg">
  <path d="M58.0871 65.0865H7.4629C3.72763 65.0865 0.688477 62.0474 0.688477 58.3121V7.68788C0.688477 3.95261 3.72763 0.913467 7.4629 0.913467H58.0871C61.8224 0.913467 64.8615 3.95261 64.8615 7.68788V58.3121C64.8615 62.0474 61.8224 65.0865 58.0871 65.0865ZM7.4629 2.63396C4.67842 2.63396 2.40897 4.90341 2.40897 7.68788V58.3121C2.40897 61.0966 4.67842 63.366 7.4629 63.366H58.0871C60.8716 63.366 63.1411 61.0966 63.1411 58.3121V7.68788C63.1411 4.90341 60.8716 2.63396 58.0871 2.63396H7.4629ZM55.8799 48.9852C55.8799 50.0153 55.0423 50.8472 54.0066 50.8472C52.9709 50.8472 52.1333 50.0153 52.1333 48.9852C52.1333 47.9552 52.9766 47.1346 54.0066 47.1346C55.0366 47.1346 55.8799 47.9609 55.8799 48.9852ZM54.0066 47.5025C53.1747 47.5025 52.5069 48.159 52.5069 48.9852C52.5069 49.8115 53.1747 50.4737 54.0066 50.4737C54.8386 50.4737 55.5064 49.8002 55.5064 48.9852C55.5064 48.1703 54.8329 47.5025 54.0066 47.5025ZM54.4028 49.9926L53.9896 49.2003H53.735V49.9926H53.3614V47.9835H54.1141C54.499 47.9835 54.765 48.2665 54.765 48.6004C54.765 48.8834 54.5839 49.0645 54.3745 49.1381L54.8159 49.987H54.4028M54.0632 48.2948H53.735V48.9004H54.0632C54.2613 48.9004 54.4028 48.7645 54.4028 48.6004C54.4028 48.4363 54.267 48.2948 54.0632 48.2948ZM17.4463 37.4625C17.4463 40.5979 20.0043 43.122 23.1623 43.122C26.3203 43.122 28.8784 40.5979 28.8784 37.4625C28.8784 34.3271 26.3203 31.7917 23.1623 31.7917C20.0043 31.7917 17.4463 34.3271 17.4463 37.4625ZM55.8799 37.4625C55.8799 44.8538 49.8356 50.8416 42.3877 50.8416C38.6241 50.8416 35.2171 49.3135 32.7722 46.8573C30.3273 49.3135 26.9203 50.8416 23.1567 50.8416C15.6975 50.8416 9.6701 44.8538 9.6701 37.4625C9.6701 30.0712 15.7031 24.0835 23.1567 24.0835C25.1998 24.0835 27.141 24.5249 28.8728 25.3399V19.0125C28.8728 16.8846 30.6159 15.1584 32.7552 15.1584C34.8945 15.1584 36.6433 16.8789 36.6433 19.0125V37.4625C36.6433 40.5979 39.2297 43.122 42.382 43.122C45.5344 43.122 48.0981 40.5979 48.0981 37.4625V32.5614C48.0981 30.4391 49.8412 28.7073 51.9862 28.7073C54.1311 28.7073 55.8686 30.4391 55.8686 32.5614V37.4625H55.8799ZM72.1283 25.1871C72.1283 24.5871 72.2755 24.157 72.5754 23.8967C72.8754 23.6364 73.2376 23.4552 73.6677 23.3647C73.9677 23.3081 74.511 23.2458 75.2977 23.1836C76.0843 23.1157 77.2049 23.0874 78.6651 23.0874C81.6589 23.0874 83.8831 23.676 85.3433 24.8531C86.8034 26.0303 87.5335 27.6037 87.5335 29.5675C87.5335 30.4843 87.3807 31.3389 87.0694 32.1369C86.7638 32.9349 86.2714 33.6197 85.5979 34.2026C84.9245 34.7799 84.0472 35.2383 82.9606 35.5666C81.874 35.8948 80.5553 36.059 79.0046 36.059C78.6141 36.059 78.2123 36.0476 77.8105 36.0193C77.4086 35.991 77.0408 35.9627 76.7012 35.9344C76.3673 35.9062 76.073 35.8722 75.8296 35.8382C75.5863 35.7986 75.4391 35.7816 75.3826 35.7816V42.6296H72.1283V25.1984V25.1871ZM75.3826 32.9349C75.5127 32.9519 75.8806 33.0028 76.4748 33.0877C77.0747 33.1726 77.8388 33.2122 78.7783 33.2122C79.8083 33.2122 80.6685 33.116 81.359 32.9293C82.0494 32.7425 82.5984 32.4822 83.0002 32.1426C83.4021 31.803 83.685 31.4182 83.8548 30.9767C84.0246 30.5353 84.1095 30.0655 84.1095 29.5619C84.1095 29.0921 84.0359 28.6394 83.8831 28.1979C83.7303 27.7565 83.453 27.3716 83.0399 27.0321C82.6267 26.6925 82.0608 26.4265 81.342 26.2171C80.6232 26.0133 79.7007 25.9058 78.5802 25.9058C77.6803 25.9058 76.9615 25.9228 76.4182 25.9624C75.8749 26.002 75.5297 26.036 75.3826 26.0756V32.9236V32.9349ZM102.299 42.5617C102.112 42.6013 101.818 42.641 101.416 42.6862C101.014 42.7315 100.539 42.7824 100.001 42.8277C99.4581 42.873 98.8525 42.9183 98.179 42.9522C97.5055 42.9918 96.8038 43.0088 96.0737 43.0088C94.6135 43.0088 93.4194 42.8843 92.4969 42.6296C91.5744 42.375 90.8386 42.041 90.3066 41.6166C89.7747 41.1978 89.4068 40.7111 89.2144 40.1564C89.0163 39.6075 88.9201 39.0359 88.9201 38.4586C88.9201 37.6889 89.0389 37.0154 89.271 36.4381C89.503 35.8609 89.8878 35.3742 90.4198 34.978C90.9518 34.5875 91.6479 34.2875 92.5138 34.0951C93.3741 33.897 94.4211 33.8008 95.6549 33.8008C96.368 33.8008 97.0415 33.8235 97.6753 33.8687C98.3092 33.914 98.7902 33.9593 99.1072 33.9932C99.1072 33.3367 98.9996 32.7934 98.7846 32.3633C98.5695 31.9332 98.2752 31.5993 97.9017 31.3502C97.5282 31.1069 97.0754 30.9371 96.5547 30.8466C96.0284 30.7503 95.4511 30.7051 94.8173 30.7051C93.7533 30.7051 92.893 30.8296 92.2479 31.0673C91.6027 31.3106 91.1782 31.5144 90.9688 31.6842C90.8556 31.588 90.7028 31.4125 90.5047 31.1522C90.3067 30.8918 90.2104 30.5749 90.2104 30.1957C90.2104 29.9354 90.2783 29.675 90.4198 29.426C90.5613 29.177 90.8103 28.9506 91.1612 28.7525C91.5121 28.5545 91.9932 28.4017 92.5931 28.2885C93.193 28.1753 93.9514 28.1187 94.8682 28.1187C95.9718 28.1187 96.9792 28.2262 97.8847 28.4413C98.7902 28.6563 99.5713 28.9959 100.228 29.4656C100.884 29.9354 101.394 30.5523 101.756 31.3163C102.124 32.086 102.305 33.0085 102.305 34.0951V42.5447L102.299 42.5617ZM99.1298 36.3306C98.943 36.291 98.5922 36.2344 98.0771 36.1608C97.5621 36.0872 96.7924 36.0476 95.7624 36.0476C94.489 36.0476 93.5665 36.2401 92.9836 36.6249C92.4007 37.0098 92.112 37.6097 92.112 38.4359C92.112 38.7755 92.1743 39.0811 92.2931 39.3641C92.412 39.6471 92.627 39.8848 92.927 40.0772C93.227 40.2696 93.6344 40.4224 94.1495 40.5243C94.6645 40.6262 95.304 40.6771 96.0737 40.6771C96.9339 40.6771 97.6187 40.6432 98.1224 40.5809C98.6261 40.513 98.9657 40.462 99.1355 40.4281V36.3306H99.1298ZM105.616 30.0146C105.616 29.5109 105.763 29.1374 106.063 28.894C106.363 28.6507 106.776 28.5318 107.296 28.5318C107.63 28.5318 107.947 28.5714 108.236 28.6563C108.525 28.7412 108.717 28.8035 108.813 28.8374V36.3306C108.813 37.4342 109.108 38.3114 109.696 38.9679C110.285 39.6244 111.196 39.9527 112.435 39.9527C113.579 39.9527 114.473 39.6188 115.129 38.9566C115.786 38.2945 116.114 37.3154 116.114 36.025V30.0203C116.114 29.5166 116.261 29.1431 116.561 28.8997C116.861 28.6563 117.274 28.5375 117.795 28.5375C118.129 28.5375 118.446 28.5771 118.734 28.662C119.023 28.7469 119.215 28.8091 119.312 28.8431V41.1355C119.312 42.4655 119.136 43.5917 118.78 44.5199C118.423 45.4481 117.919 46.2064 117.263 46.8063C116.606 47.4063 115.82 47.842 114.903 48.1137C113.986 48.3853 112.967 48.5212 111.841 48.5212C111.071 48.5212 110.37 48.4816 109.736 48.3967C109.102 48.3118 108.536 48.2156 108.038 48.1024C107.54 47.9892 107.138 47.8817 106.815 47.7798C106.498 47.6779 106.272 47.5987 106.142 47.5421C106.289 47.1516 106.431 46.7497 106.561 46.3479C106.691 45.9461 106.821 45.5499 106.951 45.1538C107.081 45.2104 107.291 45.2839 107.568 45.3802C107.851 45.4764 108.185 45.5613 108.581 45.6461C108.972 45.731 109.419 45.799 109.917 45.8555C110.415 45.9121 110.941 45.9404 111.501 45.9404C112.232 45.9404 112.888 45.8612 113.465 45.7027C114.043 45.5443 114.535 45.267 114.937 44.8765C115.339 44.486 115.65 43.9653 115.865 43.3201C116.08 42.6749 116.188 41.8656 116.188 40.8922C115.814 41.4355 115.231 41.8713 114.433 42.1995C113.635 42.5278 112.764 42.6919 111.807 42.6919C110.907 42.6919 110.075 42.5674 109.311 42.3127C108.542 42.058 107.891 41.6958 107.347 41.2204C106.804 40.745 106.38 40.1508 106.068 39.4377C105.757 38.7246 105.604 37.9153 105.604 36.9984V30.0373L105.616 30.0146Z" fill="white"/>
</svg>